<svg width="33" height="33" viewBox="0 0 33 33" fill="none" xmlns="http://www.w3.org/2000/svg">
<mask id="path-1-inside-1_146_720" fill="white">
<path fill-rule="evenodd" clip-rule="evenodd" d="M16.5 33C25.6127 33 33 25.6127 33 16.5C33 7.3873 25.6127 0 16.5 0C7.3873 0 0 7.3873 0 16.5C0 25.6127 7.3873 33 16.5 33ZM7.77803 23.5415L12.103 12.3484C12.1789 12.1518 12.3445 12.0035 12.5482 11.9496L23.7927 8.97145C24.3168 8.83263 24.7745 9.35185 24.5709 9.8544L20.2734 20.4643C20.1998 20.6461 20.0489 20.7856 19.8618 20.8446L8.58991 24.4059C8.06389 24.5721 7.5792 24.0561 7.77803 23.5415Z"/>
</mask>
<path d="M12.103 12.3484L13.3303 12.8227L13.3303 12.8227L12.103 12.3484ZM7.77803 23.5415L9.00538 24.0157L9.00538 24.0157L7.77803 23.5415ZM12.5482 11.9496L12.2113 10.6777L12.2113 10.6777L12.5482 11.9496ZM23.7927 8.97145L23.4558 7.69952L23.4558 7.69952L23.7927 8.97145ZM24.5709 9.8544L23.3514 9.36043L23.3514 9.36043L24.5709 9.8544ZM20.2734 20.4643L19.0539 19.9703L19.0539 19.9703L20.2734 20.4643ZM19.8618 20.8446L19.4654 19.59L19.4654 19.59L19.8618 20.8446ZM8.58991 24.4059L8.1935 23.1513L8.1935 23.1513L8.58991 24.4059ZM31.6842 16.5C31.6842 24.886 24.886 31.6842 16.5 31.6842V34.3158C26.3394 34.3158 34.3158 26.3394 34.3158 16.5H31.6842ZM16.5 1.31579C24.886 1.31579 31.6842 8.11399 31.6842 16.5H34.3158C34.3158 6.66061 26.3394 -1.31579 16.5 -1.31579V1.31579ZM1.31579 16.5C1.31579 8.11399 8.11399 1.31579 16.5 1.31579V-1.31579C6.66061 -1.31579 -1.31579 6.66061 -1.31579 16.5H1.31579ZM16.5 31.6842C8.11399 31.6842 1.31579 24.886 1.31579 16.5H-1.31579C-1.31579 26.3394 6.66061 34.3158 16.5 34.3158V31.6842ZM10.8756 11.8742L6.55068 23.0673L9.00538 24.0157L13.3303 12.8227L10.8756 11.8742ZM12.2113 10.6777C11.6001 10.8395 11.1035 11.2844 10.8756 11.8742L13.3303 12.8227C13.2543 13.0193 13.0888 13.1676 12.8851 13.2215L12.2113 10.6777ZM23.4558 7.69952L12.2113 10.6777L12.8851 13.2215L24.1296 10.2434L23.4558 7.69952ZM25.7905 10.3484C26.4011 8.84071 25.0282 7.28306 23.4558 7.69952L24.1296 10.2434C23.6054 10.3822 23.1478 9.86299 23.3514 9.36043L25.7905 10.3484ZM21.4929 20.9583L25.7905 10.3484L23.3514 9.36043L19.0539 19.9703L21.4929 20.9583ZM20.2582 22.0993C20.8193 21.922 21.272 21.5037 21.493 20.9583L19.0539 19.9703C19.1275 19.7885 19.2784 19.6491 19.4654 19.59L20.2582 22.0993ZM8.98631 25.6606L20.2582 22.0993L19.4654 19.59L8.1935 23.1513L8.98631 25.6606ZM6.55068 23.0673C5.9542 24.611 7.40824 26.1592 8.98631 25.6606L8.1935 23.1513C8.71953 22.9851 9.20421 23.5012 9.00538 24.0157L6.55068 23.0673Z" fill="#686868" mask="url(#path-1-inside-1_146_720)"/>
<path d="M14.7632 14.7631L17.8027 17.8025" stroke="#686868" stroke-width="1.31579" stroke-linecap="round"/>
</svg>
