<svg width="34" height="33" viewBox="0 0 34 33" fill="none" xmlns="http://www.w3.org/2000/svg">
<mask id="path-1-inside-1_97_587" fill="white">
<path fill-rule="evenodd" clip-rule="evenodd" d="M17 33C26.1127 33 33.5 25.6127 33.5 16.5C33.5 7.3873 26.1127 0 17 0C7.8873 0 0.5 7.3873 0.5 16.5C0.5 25.6127 7.8873 33 17 33ZM8.43579 23.1329L12.5641 12.4486C12.6644 12.1891 12.8829 11.9933 13.1519 11.9221L23.8854 9.0793C24.5773 8.89606 25.1814 9.58143 24.9127 10.2448L20.8105 20.3725C20.7133 20.6124 20.5141 20.7965 20.2672 20.8745L9.50747 24.274C8.81313 24.4934 8.17334 23.8122 8.43579 23.1329Z"/>
</mask>
<path d="M12.5641 12.4486L10.944 11.8226L10.944 11.8226L12.5641 12.4486ZM8.43579 23.1329L10.0559 23.7589L10.0559 23.7589L8.43579 23.1329ZM13.1519 11.9221L12.7072 10.2432L12.7072 10.2432L13.1519 11.9221ZM23.8854 9.0793L23.4408 7.40034V7.40034L23.8854 9.0793ZM24.9127 10.2448L26.5225 10.8968L26.5225 10.8968L24.9127 10.2448ZM20.8105 20.3725L19.2007 19.7204L19.2007 19.7204L20.8105 20.3725ZM20.2672 20.8745L19.744 19.2184H19.744L20.2672 20.8745ZM9.50747 24.274L10.0307 25.9301H10.0307L9.50747 24.274ZM31.7632 16.5C31.7632 24.6535 25.1535 31.2632 17 31.2632V34.7368C27.0719 34.7368 35.2368 26.5719 35.2368 16.5H31.7632ZM17 1.73684C25.1535 1.73684 31.7632 8.34653 31.7632 16.5H35.2368C35.2368 6.42807 27.0719 -1.73684 17 -1.73684V1.73684ZM2.23684 16.5C2.23684 8.34653 8.84653 1.73684 17 1.73684V-1.73684C6.92807 -1.73684 -1.23684 6.42807 -1.23684 16.5H2.23684ZM17 31.2632C8.84653 31.2632 2.23684 24.6535 2.23684 16.5H-1.23684C-1.23684 26.5719 6.92807 34.7368 17 34.7368V31.2632ZM10.944 11.8226L6.81569 22.5069L10.0559 23.7589L14.1843 13.0746L10.944 11.8226ZM12.7072 10.2432C11.9004 10.4568 11.2448 11.0441 10.944 11.8226L14.1843 13.0746C14.084 13.3341 13.8655 13.5298 13.5965 13.6011L12.7072 10.2432ZM23.4408 7.40034L12.7072 10.2432L13.5965 13.6011L24.3301 10.7583L23.4408 7.40034ZM26.5225 10.8968C27.3286 8.90673 25.5164 6.85062 23.4408 7.40034L24.3301 10.7583C23.6382 10.9415 23.0342 10.2561 23.3029 9.59276L26.5225 10.8968ZM22.4203 21.0245L26.5225 10.8968L23.3029 9.59275L19.2007 19.7204L22.4203 21.0245ZM20.7905 22.5307C21.5311 22.2967 22.1287 21.7444 22.4203 21.0245L19.2007 19.7204C19.2979 19.4805 19.4971 19.2964 19.744 19.2184L20.7905 22.5307ZM10.0307 25.9301L20.7905 22.5307L19.744 19.2184L8.98422 22.6178L10.0307 25.9301ZM6.81569 22.5069C6.02833 24.5446 7.94768 26.5883 10.0307 25.9301L8.98422 22.6178C9.67857 22.3985 10.3184 23.0797 10.0559 23.7589L6.81569 22.5069Z" fill="#686868" mask="url(#path-1-inside-1_97_587)"/>
<path d="M15.2632 14.7632L18.3027 17.8027" stroke="#686868" stroke-width="1.73684" stroke-linecap="round"/>
</svg>
