<svg width="34" height="33" viewBox="0 0 34 33" fill="none" xmlns="http://www.w3.org/2000/svg">
<path fill-rule="evenodd" clip-rule="evenodd" d="M17 33C26.1127 33 33.5 25.6127 33.5 16.5C33.5 7.3873 26.1127 0 17 0C7.8873 0 0.5 7.3873 0.5 16.5C0.5 25.6127 7.8873 33 17 33ZM8.27803 23.5415L12.603 12.3484C12.6789 12.1518 12.8445 12.0035 13.0482 11.9496L24.2927 8.97145C24.8168 8.83263 25.2745 9.35185 25.0709 9.8544L20.7734 20.4643C20.6998 20.6461 20.5489 20.7856 20.3618 20.8446L9.08991 24.4059C8.56389 24.5721 8.0792 24.0561 8.27803 23.5415Z" fill="#686868"/>
<path d="M15.2632 14.7631L18.3027 17.8025" stroke="#686868" stroke-width="1.31579" stroke-linecap="round"/>
</svg>
