<svg width="30" height="31" viewBox="0 0 30 31" fill="none" xmlns="http://www.w3.org/2000/svg">
<path d="M21.7188 7.16667C21.7188 10.3331 18.7997 13.0521 15 13.0521C11.2003 13.0521 8.28125 10.3331 8.28125 7.16667C8.28125 4.0002 11.2003 1.28125 15 1.28125C18.7997 1.28125 21.7188 4.0002 21.7188 7.16667Z" stroke="#686868" stroke-width="1.5625"/>
<path d="M25.0876 21.6559C27.1554 23.494 28.5054 25.8289 29.0034 28.3243C29.1391 29.0044 28.572 29.7188 27.6563 29.7188H15L2.34375 29.7188C1.42801 29.7188 0.8609 29.0044 0.99662 28.3243C1.49458 25.8289 2.84459 23.494 4.91243 21.6559C7.57382 19.2902 11.2012 17.948 15 17.948C18.7988 17.948 22.4262 19.2902 25.0876 21.6559Z" stroke="#686868" stroke-width="1.5625"/>
</svg>
