<svg width="35" height="34" viewBox="0 0 35 34" fill="none" xmlns="http://www.w3.org/2000/svg">
<path d="M0.666748 14.5H34.6667V30.5C34.6667 32.1569 33.3236 33.5 31.6667 33.5H3.66675C2.00989 33.5 0.666748 32.1569 0.666748 30.5V14.5Z" fill="#686868"/>
<path fill-rule="evenodd" clip-rule="evenodd" d="M6.66675 4.5H3.66675C2.00989 4.5 0.666748 5.84315 0.666748 7.5V11.5H34.6667V7.5C34.6667 5.84315 33.3236 4.5 31.6667 4.5H28.1667V7.5C28.1667 9.15685 26.8236 10.5 25.1667 10.5C23.5099 10.5 22.1667 9.15685 22.1667 7.5V4.5H12.6667V7.5C12.6667 9.15685 11.3236 10.5 9.66675 10.5C8.00989 10.5 6.66675 9.15685 6.66675 7.5V4.5Z" fill="#686868"/>
<path d="M9.66675 1.5V7.5M25.1667 1.5V7.5" stroke="#686868" stroke-width="3" stroke-linecap="round"/>
</svg>
